<?xml version="1.0" encoding="UTF-8"?>
<svg version="1.1" viewBox="0 0 2048 2048" width="512" height="512" xmlns="http://www.w3.org/2000/svg">
<path transform="translate(586,64)" d="m0 0h43l28 2 33 4 36 7 30 8 35 12 24 10 24 11 22 12 23 14 19 13 14 10 16 13 14 12 12 11 13 12 7 8 10 10 9 11 12 14 12 16 15 22 12 19 10 18 9 17 11 24 9 23 12 36 7 26 6 31 4 29 2 22 1 22v460l-5 1-297 1-13 8-23 13-12 6h-2v36h164l19 1 21 3 23 6 22 8 16 8 16 9 19 14 10 9 2 1v2l5 2 683 1 20 2 21 5 20 8 18 10 17 13 13 12 9 11 10 14 12 23 7 21 3 14 2 22v485h63l1 1v94l-1 16-4 16-7 16-9 13-11 12-14 10-14 7-13 4-10 2-17 1h-1789l-11-2-8-5-7-7-4-9-1-5v-657l2-20 4-21 6-20 10-24 11-20 12-17 8-10 9-10 13-13 11-9 15-11 21-12 15-7 22-8 21-5 19-3 19-1 165-1v-34l-19-10-18-10-14-8-5-1h-294l-1-1v-471l3-36 4-28 7-34 10-35 9-26 10-24 14-29 13-24 14-22 11-16 9-12 10-13 9-10 9-11 7-7 1-2h2l2-4 16-16 8-7 10-9 11-9 15-12 14-10 18-12 18-11 18-10 17-9 32-14 30-11 35-10 27-6 31-5 28-3z" fill="#010000"/>
<path transform="translate(272,1152)" d="m0 0h179l10 30 8 16 8 13 9 12 12 13 11 9 11 8 16 9 18 8 17 5 18 3 12 1h15l24-3 19-5 21-9 16-9 12-9 12-11 9-9 10-13 9-15 7-15 8-22 3-7h175l15 2 20 5 14 5-1 3-19 10-16 12-10 9-7 7-8 10-7 10-8 14-7 16-6 20-2 9-2 20-1 73-1 414-63 1 1 101 3 21v5l-56 1h-395l-1-1v-415h-64v295l-1 120-56 1h-134l-1-1v-619l2-16 4-17 6-17 8-17 12-18 11-13 10-10 17-13 17-10 19-8 11-4 19-4z" fill="#FDB534"/>
<path transform="translate(1052,1216)" d="m0 0h714l15 2 14 4 14 7 11 8 10 9 9 11 8 14 5 14 3 13v493h-895v-481l2-18 3-11 5-12 6-11 9-11 10-10 14-9 12-6 13-4z" fill="#A6D6DE"/>
<path transform="translate(289,512)" d="m0 0h638l1 1v58l-1 159-2 22-5 24-7 26-8 22-11 24-9 17-13 20-13 18-9 10-7 8-9 10-16 15-15 12-18 13-20 12-23 12-19 8-24 8-20 5-13 3-17 3-20 2h-41l-40-5-21-5-21-6-19-7-12-5-15-8-11-6-18-11-14-10-14-11-10-9-8-7-12-12-7-8-10-12-14-19-15-25-12-24-8-20-7-21-4-16-5-26-3-25v-213z" fill="#FDE7C9"/>
<path transform="translate(580,129)" d="m0 0h54l26 2 26 4 24 5 27 7 29 10 26 11 25 12 21 12 19 12 17 12 18 14 11 10 8 7 15 14 8 8 7 8 10 11 11 14 10 13 10 15 12 19 12 22 14 29 10 26 9 29 7 28 5 29 3 27 2 41-8-1-12-2-13-1-30-1-1-86-1-16-5-12-8-8-11-4-9-1h-706l-9 2-10 7-6 9-2 5-1 7-1 97-29 1-21 2-13 2 1-30 2-23 4-28 5-26 8-29 9-27 11-26 11-23 13-23 11-17 14-20 16-20 12-14 10-10 1-2h2l2-4h2v-2l8-7 14-13 11-9 18-14 24-16 20-12 23-12 24-11 27-10 19-6 23-6 29-6 31-4z" fill="#764C41"/>
<path transform="translate(897,1856)" d="m0 0h1022v39l-4 10-7 8-10 5-4 1h-974l-9-4-8-7-4-6-2-6-1-21v-18z" fill="#67BDC6"/>
<path transform="translate(480,800)" d="m0 0h63l1 1 1 42 5 15 7 12 6 7 10 8 6 4 14 5 9 1h11l12-2 13-5 11-8 5-4 9-13 5-11 3-13 1-39h63l1 1v40l-3 20-5 17-8 17-8 12-8 10-13 13-14 10-14 8-14 5-12 4-20 3h-18l-20-3-17-5-17-8-12-8-10-8-8-7-9-11-9-13-4-7-3-8-5-12-4-18-1-10z" fill="#020000"/>
<path transform="translate(513,1076)" d="m0 0 8 1 20 4 24 3 13 2 16 1h28l25-2 16-2 20-4 16-3h5v51l-2 13-5 16-8 16-11 14-7 7-14 10-15 7-8 3-14 3h-25l-17-4-10-4-13-7-13-11-5-5-9-11-6-10-6-15-4-17v-55z" fill="#FED9A6"/>
<path transform="translate(1053,763)" d="m0 0h2v196h-160l2-4 5-5 13-17 10-14 13-20 13-24 9-19 10-26 8-26 7-30 1-5 32-1 21-2z" fill="#764C41"/>
<path transform="translate(161,764)" d="m0 0 23 3 13 1 33 1 5 25 7 25 7 20 11 26 10 19 6 11 8 14 8 12 8 11 11 14 8 10 2 1v2h-160z" fill="#764C41"/>
<path transform="translate(1256,1386)" d="m0 0 4 1 42 42-2 5-66 66h-2l-1 5 71 71-2 5-4 2-2 4h-2l-2 4h-2l-2 4-16 16h-2l-2 4-5 4-2 3-4-1v-2l-4-2-112-112 2-4z" fill="#030101"/>
<path transform="translate(1557,1386)" d="m0 0 4 1 116 116-2 4-114 114-3 1-45-45 71-71 1-3-71-71 1-4z" fill="#020101"/>
<path transform="translate(756,576)" d="m0 0h24l18 4 16 7 11 7 12 11 9 10 9 15 6 16 3 18v39l-2 1h-62l-1-38-4-10-1-4-4-2-6-5-11-4h-12l-8 3-9 7-6 10-1 4-1 38-1 1h-63l-1-2 1-38 3-19 6-15 6-11 8-10 12-12 15-10 13-6 15-4z" fill="#020100"/>
<path transform="translate(436,576)" d="m0 0h24l18 4 12 5 12 7 10 8 11 11 10 15 7 16 3 14 1 8v39l-1 1h-63l-1-38-4-10-1-4-4-2-6-5-11-4h-13l-10 5-6 5-6 10-1 4-1 38-1 1h-63v-42l4-20 7-16 7-11 9-10 8-8 15-10 13-6 15-4z" fill="#020100"/>
<path transform="translate(1409,1398)" d="m0 0 7 1 48 16 6 3-2 9-61 183-5-1-54-18-2-1 1-7 14-41 46-138z" fill="#030101"/>
<path transform="translate(184,640)" d="m0 0h40v63l-1 1h-37l-8-3-6-4-8-9-3-7-1-5v-10l3-8 6-9 10-7z" fill="#FED8A5"/>
<path transform="translate(993,640)" d="m0 0h34l9 2 9 6 6 7 4 8 1 4v11l-3 8-7 9-5 4-8 4-6 1h-34l-1-1v-62z" fill="#FED9A7"/>
<path transform="translate(1022,641)" d="m0 0h11l10 5 7 7 5 10 1 4v11l-3 8-7 9-5 4-8 4h-6l3-3h2v-2l8-7 6-10 2-10-3-12-7-9-16-6z" fill="#FBE1BF"/>
<path transform="translate(221,640)" d="m0 0h3v63h-35v-1h22l2-4h2l2-29 2-12 2-8-4-2v-2l-4-1-4-2v-1z" fill="#F7DCB7"/>
<path transform="translate(993,640)" d="m0 0 13 1h8l-3 3h-7l-5 2-2 7 2 12v27l3 7 2 4h-12v-62z" fill="#FDE1B7"/>
<path transform="translate(181,641)" d="m0 0h19v1l-11 3h-8l-5 5-1 2h-2l-2 4-5 5-1 6 2 6 4 10 3 8v3l4 2 8 5v1h-7l-8-6-7-8-3-7-1-5v-10l3-8 6-9 10-7z" fill="#FCE1BC"/>
<path transform="translate(521,1158)" d="m0 0 4 1 3 5v2h2l3 9h-4l-7-11z" fill="#FEE3BE"/>
<path transform="translate(702,1087)" d="m0 0h1v32h-3l-1-2v-9l2-7v-8z" fill="#FEE8CB"/>
<path transform="translate(1029,700)" d="m0 0m-8 1h8l-2 1v2h-34v-1z" fill="#F6D09B"/>
<path transform="translate(183,641)" d="m0 0h17v1l-11 3-8-1z" fill="#FEE7CA"/>
<path transform="translate(699,1076)" d="m0 0h5l-1 10-5-5-1-4z" fill="#FEE3BD"/>
<path transform="translate(513,1076)" d="m0 0 8 1 1 3-7 2-2 1-1-6z" fill="#FEE3BF"/>
<path transform="translate(599,1089)" d="m0 0h19l-3 2-12 1z" fill="#FEE8CB"/>
<path transform="translate(685,1173)" d="m0 0 1 3-6 8h-3v-2h2l1-4h2l2-4z" fill="#FEE1B8"/>
</svg>
